<?xml version="1.0" encoding="UTF-8"?>
<!DOCTYPE svg PUBLIC "-//W3C//DTD SVG 1.1//EN" "http://www.w3.org/Graphics/SVG/1.1/DTD/svg11.dtd">
<!-- Creator: CorelDRAW X7 -->
<svg xmlns="http://www.w3.org/2000/svg" xml:space="preserve" width="176.389mm" height="176.389mm" version="1.1" style="shape-rendering:geometricPrecision; text-rendering:geometricPrecision; image-rendering:optimizeQuality; fill-rule:evenodd; clip-rule:evenodd"
viewBox="0 0 17639 17639"
 xmlns:xlink="http://www.w3.org/1999/xlink">
 <defs>
  <style type="text/css">
   <![CDATA[
    .str0 {stroke:#F2592A;stroke-width:70.56}
    .str2 {stroke:#F2592A;stroke-width:35.28}
    .str1 {stroke:#F2592A;stroke-width:17.64}
    .fil1 {fill:none;fill-rule:nonzero}
    .fil0 {fill:url(#id0);fill-rule:nonzero}
   ]]>
  </style>
  <linearGradient id="id0" gradientUnits="userSpaceOnUse" x1="-0" y1="8819.44" x2="17638.9" y2="8819.44">
   <stop offset="0" style="stop-opacity:1; stop-color:#F6932F"/>
   <stop offset="0.341176" style="stop-opacity:1; stop-color:#F04D28"/>
   <stop offset="0.611765" style="stop-opacity:1; stop-color:#F2622A"/>
   <stop offset="0.788235" style="stop-opacity:1; stop-color:#F4822F"/>
   <stop offset="1" style="stop-opacity:1; stop-color:#F4821F"/>
  </linearGradient>
 </defs>
 <g id="BACKGROUND">
  <metadata id="CorelCorpID_0Corel-Layer"/>
  <g id="_851985696">
   <polygon class="fil0" points="17639,17639 0,17639 0,0 17639,0 "/>
   <g>
    <line class="fil1 str0" x1="12294" y1="8456" x2="8749" y2= "8456" />
    <line class="fil1 str0" x1="12294" y1="8809" x2="8749" y2= "8809" />
    <line class="fil1 str1" x1="12294" y1="9162" x2="8749" y2= "9162" />
    <line class="fil1 str2" x1="12294" y1="9515" x2="8749" y2= "9515" />
    <line class="fil1 str0" x1="12294" y1="9868" x2="8749" y2= "9868" />
    <line class="fil1 str0" x1="12294" y1="10221" x2="8749" y2= "10221" />
    <line class="fil1 str0" x1="12294" y1="10574" x2="8749" y2= "10574" />
    <line class="fil1 str1" x1="12294" y1="10927" x2="8749" y2= "10927" />
    <line class="fil1 str0" x1="12294" y1="11280" x2="8749" y2= "11280" />
    <line class="fil1 str0" x1="12294" y1="11634" x2="8749" y2= "11634" />
   </g>
   <g>
    <line class="fil1 str0" x1="12294" y1="12001" x2="8749" y2= "12001" />
    <line class="fil1 str0" x1="12294" y1="12354" x2="8749" y2= "12354" />
    <line class="fil1 str1" x1="12294" y1="12707" x2="8749" y2= "12707" />
    <line class="fil1 str2" x1="12294" y1="13060" x2="8749" y2= "13060" />
    <line class="fil1 str0" x1="12294" y1="13414" x2="8749" y2= "13414" />
    <line class="fil1 str0" x1="12294" y1="13767" x2="8749" y2= "13767" />
    <line class="fil1 str0" x1="12294" y1="14120" x2="8749" y2= "14120" />
    <line class="fil1 str1" x1="12294" y1="14473" x2="8749" y2= "14473" />
    <line class="fil1 str0" x1="12294" y1="14826" x2="8749" y2= "14826" />
    <line class="fil1 str0" x1="12294" y1="15179" x2="8749" y2= "15179" />
   </g>
   <g>
    <line class="fil1 str0" x1="15840" y1="8456" x2="12294" y2= "8456" />
    <line class="fil1 str0" x1="15840" y1="8809" x2="12294" y2= "8809" />
    <line class="fil1 str1" x1="15840" y1="9162" x2="12294" y2= "9162" />
    <line class="fil1 str2" x1="15840" y1="9515" x2="12294" y2= "9515" />
    <line class="fil1 str0" x1="15840" y1="9868" x2="12294" y2= "9868" />
    <line class="fil1 str0" x1="15840" y1="10221" x2="12294" y2= "10221" />
    <line class="fil1 str0" x1="15840" y1="10574" x2="12294" y2= "10574" />
    <line class="fil1 str1" x1="15840" y1="10927" x2="12294" y2= "10927" />
    <line class="fil1 str0" x1="15840" y1="11280" x2="12294" y2= "11280" />
    <line class="fil1 str0" x1="15840" y1="11634" x2="12294" y2= "11634" />
   </g>
   <g>
    <line class="fil1 str0" x1="12294" y1="15547" x2="8749" y2= "15547" />
    <line class="fil1 str0" x1="12294" y1="15900" x2="8749" y2= "15900" />
    <line class="fil1 str1" x1="12294" y1="16253" x2="8749" y2= "16253" />
    <line class="fil1 str2" x1="12294" y1="16606" x2="8749" y2= "16606" />
    <line class="fil1 str0" x1="12294" y1="16959" x2="8749" y2= "16959" />
    <line class="fil1 str0" x1="12294" y1="17312" x2="8749" y2= "17312" />
   </g>
   <g>
    <line class="fil1 str0" x1="15840" y1="12001" x2="12294" y2= "12001" />
    <line class="fil1 str0" x1="15840" y1="12354" x2="12294" y2= "12354" />
    <line class="fil1 str1" x1="15840" y1="12707" x2="12294" y2= "12707" />
    <line class="fil1 str2" x1="15840" y1="13060" x2="12294" y2= "13060" />
    <line class="fil1 str0" x1="15840" y1="13414" x2="12294" y2= "13414" />
    <line class="fil1 str0" x1="15840" y1="13767" x2="12294" y2= "13767" />
    <line class="fil1 str0" x1="15840" y1="14120" x2="12294" y2= "14120" />
    <line class="fil1 str1" x1="15840" y1="14473" x2="12294" y2= "14473" />
    <line class="fil1 str0" x1="15840" y1="14826" x2="12294" y2= "14826" />
    <line class="fil1 str0" x1="15840" y1="15179" x2="12294" y2= "15179" />
   </g>
   <g>
    <line class="fil1 str0" x1="17639" y1="8456" x2="15840" y2= "8456" />
    <line class="fil1 str0" x1="17639" y1="8809" x2="15840" y2= "8809" />
    <line class="fil1 str1" x1="17639" y1="9162" x2="15840" y2= "9162" />
    <line class="fil1 str2" x1="17639" y1="9515" x2="15840" y2= "9515" />
    <line class="fil1 str0" x1="17639" y1="9868" x2="15840" y2= "9868" />
    <line class="fil1 str0" x1="17639" y1="10221" x2="15840" y2= "10221" />
    <line class="fil1 str0" x1="17639" y1="10574" x2="15840" y2= "10574" />
    <line class="fil1 str1" x1="17639" y1="10927" x2="15840" y2= "10927" />
    <line class="fil1 str0" x1="17639" y1="11280" x2="15840" y2= "11280" />
    <line class="fil1 str0" x1="17639" y1="11634" x2="15840" y2= "11634" />
   </g>
   <g>
    <line class="fil1 str0" x1="15840" y1="15547" x2="12294" y2= "15547" />
    <line class="fil1 str0" x1="15840" y1="15900" x2="12294" y2= "15900" />
    <line class="fil1 str1" x1="15840" y1="16253" x2="12294" y2= "16253" />
    <line class="fil1 str2" x1="15840" y1="16606" x2="12294" y2= "16606" />
    <line class="fil1 str0" x1="15840" y1="16959" x2="12294" y2= "16959" />
    <line class="fil1 str0" x1="15840" y1="17312" x2="12294" y2= "17312" />
   </g>
   <g>
    <line class="fil1 str0" x1="17639" y1="12001" x2="15840" y2= "12001" />
    <line class="fil1 str0" x1="17639" y1="12354" x2="15840" y2= "12354" />
    <line class="fil1 str1" x1="17639" y1="12707" x2="15840" y2= "12707" />
    <line class="fil1 str2" x1="17639" y1="13060" x2="15840" y2= "13060" />
    <line class="fil1 str0" x1="17639" y1="13414" x2="15840" y2= "13414" />
    <line class="fil1 str0" x1="17639" y1="13767" x2="15840" y2= "13767" />
    <line class="fil1 str0" x1="17639" y1="14120" x2="15840" y2= "14120" />
    <line class="fil1 str1" x1="17639" y1="14473" x2="15840" y2= "14473" />
    <line class="fil1 str0" x1="17639" y1="14826" x2="15840" y2= "14826" />
    <line class="fil1 str0" x1="17639" y1="15179" x2="15840" y2= "15179" />
   </g>
   <g>
    <line class="fil1 str0" x1="17639" y1="15547" x2="15840" y2= "15547" />
    <line class="fil1 str0" x1="17639" y1="15900" x2="15840" y2= "15900" />
    <line class="fil1 str1" x1="17639" y1="16253" x2="15840" y2= "16253" />
    <line class="fil1 str2" x1="17639" y1="16606" x2="15840" y2= "16606" />
    <line class="fil1 str0" x1="17639" y1="16959" x2="15840" y2= "16959" />
    <line class="fil1 str0" x1="17639" y1="17312" x2="15840" y2= "17312" />
   </g>
   <g>
    <line class="fil1 str0" x1="8749" y1="8456" x2="5203" y2= "8456" />
    <line class="fil1 str0" x1="8749" y1="8809" x2="5203" y2= "8809" />
    <line class="fil1 str1" x1="8749" y1="9162" x2="5203" y2= "9162" />
    <line class="fil1 str2" x1="8749" y1="9515" x2="5203" y2= "9515" />
    <line class="fil1 str0" x1="8749" y1="9868" x2="5203" y2= "9868" />
    <line class="fil1 str0" x1="8749" y1="10221" x2="5203" y2= "10221" />
    <line class="fil1 str0" x1="8749" y1="10574" x2="5203" y2= "10574" />
    <line class="fil1 str1" x1="8749" y1="10927" x2="5203" y2= "10927" />
    <line class="fil1 str0" x1="8749" y1="11280" x2="5203" y2= "11280" />
    <line class="fil1 str0" x1="8749" y1="11634" x2="5203" y2= "11634" />
   </g>
   <g>
    <line class="fil1 str0" x1="5203" y1="8456" x2="1658" y2= "8456" />
    <line class="fil1 str0" x1="5203" y1="8809" x2="1658" y2= "8809" />
    <line class="fil1 str1" x1="5203" y1="9162" x2="1658" y2= "9162" />
    <line class="fil1 str2" x1="5203" y1="9515" x2="1658" y2= "9515" />
    <line class="fil1 str0" x1="5203" y1="9868" x2="1658" y2= "9868" />
    <line class="fil1 str0" x1="5203" y1="10221" x2="1658" y2= "10221" />
    <line class="fil1 str0" x1="5203" y1="10574" x2="1658" y2= "10574" />
    <line class="fil1 str1" x1="5203" y1="10927" x2="1658" y2= "10927" />
    <line class="fil1 str0" x1="5203" y1="11280" x2="1658" y2= "11280" />
    <line class="fil1 str0" x1="5203" y1="11634" x2="1658" y2= "11634" />
   </g>
   <g>
    <line class="fil1 str0" x1="8749" y1="12001" x2="5203" y2= "12001" />
    <line class="fil1 str0" x1="8749" y1="12354" x2="5203" y2= "12354" />
    <line class="fil1 str1" x1="8749" y1="12707" x2="5203" y2= "12707" />
    <line class="fil1 str2" x1="8749" y1="13060" x2="5203" y2= "13060" />
    <line class="fil1 str0" x1="8749" y1="13414" x2="5203" y2= "13414" />
    <line class="fil1 str0" x1="8749" y1="13767" x2="5203" y2= "13767" />
    <line class="fil1 str0" x1="8749" y1="14120" x2="5203" y2= "14120" />
    <line class="fil1 str1" x1="8749" y1="14473" x2="5203" y2= "14473" />
    <line class="fil1 str0" x1="8749" y1="14826" x2="5203" y2= "14826" />
    <line class="fil1 str0" x1="8749" y1="15179" x2="5203" y2= "15179" />
   </g>
   <g>
    <line class="fil1 str0" x1="1658" y1="8456" x2="0" y2= "8456" />
    <line class="fil1 str0" x1="1658" y1="8809" x2="0" y2= "8809" />
    <line class="fil1 str1" x1="1658" y1="9162" x2="0" y2= "9162" />
    <line class="fil1 str2" x1="1658" y1="9515" x2="0" y2= "9515" />
    <line class="fil1 str0" x1="1658" y1="9868" x2="0" y2= "9868" />
    <line class="fil1 str0" x1="1658" y1="10221" x2="0" y2= "10221" />
    <line class="fil1 str0" x1="1658" y1="10574" x2="0" y2= "10574" />
    <line class="fil1 str1" x1="1658" y1="10927" x2="0" y2= "10927" />
    <line class="fil1 str0" x1="1658" y1="11280" x2="0" y2= "11280" />
    <line class="fil1 str0" x1="1658" y1="11634" x2="0" y2= "11634" />
   </g>
   <g>
    <line class="fil1 str0" x1="5203" y1="12001" x2="1658" y2= "12001" />
    <line class="fil1 str0" x1="5203" y1="12354" x2="1658" y2= "12354" />
    <line class="fil1 str1" x1="5203" y1="12707" x2="1658" y2= "12707" />
    <line class="fil1 str2" x1="5203" y1="13060" x2="1658" y2= "13060" />
    <line class="fil1 str0" x1="5203" y1="13414" x2="1658" y2= "13414" />
    <line class="fil1 str0" x1="5203" y1="13767" x2="1658" y2= "13767" />
    <line class="fil1 str0" x1="5203" y1="14120" x2="1658" y2= "14120" />
    <line class="fil1 str1" x1="5203" y1="14473" x2="1658" y2= "14473" />
    <line class="fil1 str0" x1="5203" y1="14826" x2="1658" y2= "14826" />
    <line class="fil1 str0" x1="5203" y1="15179" x2="1658" y2= "15179" />
   </g>
   <g>
    <line class="fil1 str0" x1="8749" y1="15547" x2="5203" y2= "15547" />
    <line class="fil1 str0" x1="8749" y1="15900" x2="5203" y2= "15900" />
    <line class="fil1 str1" x1="8749" y1="16253" x2="5203" y2= "16253" />
    <line class="fil1 str2" x1="8749" y1="16606" x2="5203" y2= "16606" />
    <line class="fil1 str0" x1="8749" y1="16959" x2="5203" y2= "16959" />
    <line class="fil1 str0" x1="8749" y1="17312" x2="5203" y2= "17312" />
   </g>
   <g>
    <line class="fil1 str0" x1="1658" y1="12001" x2="0" y2= "12001" />
    <line class="fil1 str0" x1="1658" y1="12354" x2="0" y2= "12354" />
    <line class="fil1 str1" x1="1658" y1="12707" x2="0" y2= "12707" />
    <line class="fil1 str2" x1="1658" y1="13060" x2="0" y2= "13060" />
    <line class="fil1 str0" x1="1658" y1="13414" x2="0" y2= "13414" />
    <line class="fil1 str0" x1="1658" y1="13767" x2="0" y2= "13767" />
    <line class="fil1 str0" x1="1658" y1="14120" x2="0" y2= "14120" />
    <line class="fil1 str1" x1="1658" y1="14473" x2="0" y2= "14473" />
    <line class="fil1 str0" x1="1658" y1="14826" x2="0" y2= "14826" />
    <line class="fil1 str0" x1="1658" y1="15179" x2="0" y2= "15179" />
   </g>
   <g>
    <line class="fil1 str0" x1="5203" y1="15547" x2="1658" y2= "15547" />
    <line class="fil1 str0" x1="5203" y1="15900" x2="1658" y2= "15900" />
    <line class="fil1 str1" x1="5203" y1="16253" x2="1658" y2= "16253" />
    <line class="fil1 str2" x1="5203" y1="16606" x2="1658" y2= "16606" />
    <line class="fil1 str0" x1="5203" y1="16959" x2="1658" y2= "16959" />
    <line class="fil1 str0" x1="5203" y1="17312" x2="1658" y2= "17312" />
   </g>
   <g>
    <line class="fil1 str0" x1="1658" y1="15547" x2="0" y2= "15547" />
    <line class="fil1 str0" x1="1658" y1="15900" x2="0" y2= "15900" />
    <line class="fil1 str1" x1="1658" y1="16253" x2="0" y2= "16253" />
    <line class="fil1 str2" x1="1658" y1="16606" x2="0" y2= "16606" />
    <line class="fil1 str0" x1="1658" y1="16959" x2="0" y2= "16959" />
    <line class="fil1 str0" x1="1658" y1="17312" x2="0" y2= "17312" />
   </g>
   <g>
    <line class="fil1 str0" x1="12294" y1="4910" x2="8749" y2= "4910" />
    <line class="fil1 str0" x1="12294" y1="5263" x2="8749" y2= "5263" />
    <line class="fil1 str1" x1="12294" y1="5616" x2="8749" y2= "5616" />
    <line class="fil1 str2" x1="12294" y1="5969" x2="8749" y2= "5969" />
    <line class="fil1 str0" x1="12294" y1="6323" x2="8749" y2= "6323" />
    <line class="fil1 str0" x1="12294" y1="6676" x2="8749" y2= "6676" />
    <line class="fil1 str0" x1="12294" y1="7029" x2="8749" y2= "7029" />
    <line class="fil1 str1" x1="12294" y1="7382" x2="8749" y2= "7382" />
    <line class="fil1 str0" x1="12294" y1="7735" x2="8749" y2= "7735" />
    <line class="fil1 str0" x1="12294" y1="8088" x2="8749" y2= "8088" />
   </g>
   <g>
    <line class="fil1 str0" x1="12294" y1="1365" x2="8749" y2= "1365" />
    <line class="fil1 str0" x1="12294" y1="1718" x2="8749" y2= "1718" />
    <line class="fil1 str1" x1="12294" y1="2071" x2="8749" y2= "2071" />
    <line class="fil1 str2" x1="12294" y1="2424" x2="8749" y2= "2424" />
    <line class="fil1 str0" x1="12294" y1="2777" x2="8749" y2= "2777" />
    <line class="fil1 str0" x1="12294" y1="3130" x2="8749" y2= "3130" />
    <line class="fil1 str0" x1="12294" y1="3483" x2="8749" y2= "3483" />
    <line class="fil1 str1" x1="12294" y1="3836" x2="8749" y2= "3836" />
    <line class="fil1 str0" x1="12294" y1="4189" x2="8749" y2= "4189" />
    <line class="fil1 str0" x1="12294" y1="4543" x2="8749" y2= "4543" />
   </g>
   <g>
    <line class="fil1 str0" x1="8749" y1="4910" x2="5203" y2= "4910" />
    <line class="fil1 str0" x1="8749" y1="5263" x2="5203" y2= "5263" />
    <line class="fil1 str1" x1="8749" y1="5616" x2="5203" y2= "5616" />
    <line class="fil1 str2" x1="8749" y1="5969" x2="5203" y2= "5969" />
    <line class="fil1 str0" x1="8749" y1="6323" x2="5203" y2= "6323" />
    <line class="fil1 str0" x1="8749" y1="6676" x2="5203" y2= "6676" />
    <line class="fil1 str0" x1="8749" y1="7029" x2="5203" y2= "7029" />
    <line class="fil1 str1" x1="8749" y1="7382" x2="5203" y2= "7382" />
    <line class="fil1 str0" x1="8749" y1="7735" x2="5203" y2= "7735" />
    <line class="fil1 str0" x1="8749" y1="8088" x2="5203" y2= "8088" />
   </g>
   <g>
    <line class="fil1 str1" x1="12294" y1="291" x2="8749" y2= "291" />
    <line class="fil1 str0" x1="12294" y1="644" x2="8749" y2= "644" />
    <line class="fil1 str0" x1="12294" y1="997" x2="8749" y2= "997" />
   </g>
   <g>
    <line class="fil1 str0" x1="8749" y1="1365" x2="5203" y2= "1365" />
    <line class="fil1 str0" x1="8749" y1="1718" x2="5203" y2= "1718" />
    <line class="fil1 str1" x1="8749" y1="2071" x2="5203" y2= "2071" />
    <line class="fil1 str2" x1="8749" y1="2424" x2="5203" y2= "2424" />
    <line class="fil1 str0" x1="8749" y1="2777" x2="5203" y2= "2777" />
    <line class="fil1 str0" x1="8749" y1="3130" x2="5203" y2= "3130" />
    <line class="fil1 str0" x1="8749" y1="3483" x2="5203" y2= "3483" />
    <line class="fil1 str1" x1="8749" y1="3836" x2="5203" y2= "3836" />
    <line class="fil1 str0" x1="8749" y1="4189" x2="5203" y2= "4189" />
    <line class="fil1 str0" x1="8749" y1="4543" x2="5203" y2= "4543" />
   </g>
   <g>
    <line class="fil1 str0" x1="5203" y1="4910" x2="1658" y2= "4910" />
    <line class="fil1 str0" x1="5203" y1="5263" x2="1658" y2= "5263" />
    <line class="fil1 str1" x1="5203" y1="5616" x2="1658" y2= "5616" />
    <line class="fil1 str2" x1="5203" y1="5969" x2="1658" y2= "5969" />
    <line class="fil1 str0" x1="5203" y1="6323" x2="1658" y2= "6323" />
    <line class="fil1 str0" x1="5203" y1="6676" x2="1658" y2= "6676" />
    <line class="fil1 str0" x1="5203" y1="7029" x2="1658" y2= "7029" />
    <line class="fil1 str1" x1="5203" y1="7382" x2="1658" y2= "7382" />
    <line class="fil1 str0" x1="5203" y1="7735" x2="1658" y2= "7735" />
    <line class="fil1 str0" x1="5203" y1="8088" x2="1658" y2= "8088" />
   </g>
   <g>
    <line class="fil1 str1" x1="8749" y1="291" x2="5203" y2= "291" />
    <line class="fil1 str0" x1="8749" y1="644" x2="5203" y2= "644" />
    <line class="fil1 str0" x1="8749" y1="997" x2="5203" y2= "997" />
   </g>
   <g>
    <line class="fil1 str0" x1="5203" y1="1365" x2="1658" y2= "1365" />
    <line class="fil1 str0" x1="5203" y1="1718" x2="1658" y2= "1718" />
    <line class="fil1 str1" x1="5203" y1="2071" x2="1658" y2= "2071" />
    <line class="fil1 str2" x1="5203" y1="2424" x2="1658" y2= "2424" />
    <line class="fil1 str0" x1="5203" y1="2777" x2="1658" y2= "2777" />
    <line class="fil1 str0" x1="5203" y1="3130" x2="1658" y2= "3130" />
    <line class="fil1 str0" x1="5203" y1="3483" x2="1658" y2= "3483" />
    <line class="fil1 str1" x1="5203" y1="3836" x2="1658" y2= "3836" />
    <line class="fil1 str0" x1="5203" y1="4189" x2="1658" y2= "4189" />
    <line class="fil1 str0" x1="5203" y1="4543" x2="1658" y2= "4543" />
   </g>
   <g>
    <line class="fil1 str0" x1="1658" y1="4910" x2="0" y2= "4910" />
    <line class="fil1 str0" x1="1658" y1="5263" x2="0" y2= "5263" />
    <line class="fil1 str1" x1="1658" y1="5616" x2="0" y2= "5616" />
    <line class="fil1 str2" x1="1658" y1="5969" x2="0" y2= "5969" />
    <line class="fil1 str0" x1="1658" y1="6323" x2="0" y2= "6323" />
    <line class="fil1 str0" x1="1658" y1="6676" x2="0" y2= "6676" />
    <line class="fil1 str0" x1="1658" y1="7029" x2="0" y2= "7029" />
    <line class="fil1 str1" x1="1658" y1="7382" x2="0" y2= "7382" />
    <line class="fil1 str0" x1="1658" y1="7735" x2="0" y2= "7735" />
    <line class="fil1 str0" x1="1658" y1="8088" x2="0" y2= "8088" />
   </g>
   <g>
    <line class="fil1 str1" x1="5203" y1="291" x2="1658" y2= "291" />
    <line class="fil1 str0" x1="5203" y1="644" x2="1658" y2= "644" />
    <line class="fil1 str0" x1="5203" y1="997" x2="1658" y2= "997" />
   </g>
   <g>
    <line class="fil1 str0" x1="1658" y1="1365" x2="0" y2= "1365" />
    <line class="fil1 str0" x1="1658" y1="1718" x2="0" y2= "1718" />
    <line class="fil1 str1" x1="1658" y1="2071" x2="0" y2= "2071" />
    <line class="fil1 str2" x1="1658" y1="2424" x2="0" y2= "2424" />
    <line class="fil1 str0" x1="1658" y1="2777" x2="0" y2= "2777" />
    <line class="fil1 str0" x1="1658" y1="3130" x2="0" y2= "3130" />
    <line class="fil1 str0" x1="1658" y1="3483" x2="0" y2= "3483" />
    <line class="fil1 str1" x1="1658" y1="3836" x2="0" y2= "3836" />
    <line class="fil1 str0" x1="1658" y1="4189" x2="0" y2= "4189" />
    <line class="fil1 str0" x1="1658" y1="4543" x2="0" y2= "4543" />
   </g>
   <g>
    <line class="fil1 str1" x1="1658" y1="291" x2="0" y2= "291" />
    <line class="fil1 str0" x1="1658" y1="644" x2="0" y2= "644" />
    <line class="fil1 str0" x1="1658" y1="997" x2="0" y2= "997" />
   </g>
   <g>
    <line class="fil1 str0" x1="15840" y1="4910" x2="12294" y2= "4910" />
    <line class="fil1 str0" x1="15840" y1="5263" x2="12294" y2= "5263" />
    <line class="fil1 str1" x1="15840" y1="5616" x2="12294" y2= "5616" />
    <line class="fil1 str2" x1="15840" y1="5969" x2="12294" y2= "5969" />
    <line class="fil1 str0" x1="15840" y1="6323" x2="12294" y2= "6323" />
    <line class="fil1 str0" x1="15840" y1="6676" x2="12294" y2= "6676" />
    <line class="fil1 str0" x1="15840" y1="7029" x2="12294" y2= "7029" />
    <line class="fil1 str1" x1="15840" y1="7382" x2="12294" y2= "7382" />
    <line class="fil1 str0" x1="15840" y1="7735" x2="12294" y2= "7735" />
    <line class="fil1 str0" x1="15840" y1="8088" x2="12294" y2= "8088" />
   </g>
   <g>
    <line class="fil1 str0" x1="17639" y1="4910" x2="15840" y2= "4910" />
    <line class="fil1 str0" x1="17639" y1="5263" x2="15840" y2= "5263" />
    <line class="fil1 str1" x1="17639" y1="5616" x2="15840" y2= "5616" />
    <line class="fil1 str2" x1="17639" y1="5969" x2="15840" y2= "5969" />
    <line class="fil1 str0" x1="17639" y1="6323" x2="15840" y2= "6323" />
    <line class="fil1 str0" x1="17639" y1="6676" x2="15840" y2= "6676" />
    <line class="fil1 str0" x1="17639" y1="7029" x2="15840" y2= "7029" />
    <line class="fil1 str1" x1="17639" y1="7382" x2="15840" y2= "7382" />
    <line class="fil1 str0" x1="17639" y1="7735" x2="15840" y2= "7735" />
    <line class="fil1 str0" x1="17639" y1="8088" x2="15840" y2= "8088" />
   </g>
   <g>
    <line class="fil1 str0" x1="15840" y1="1365" x2="12294" y2= "1365" />
    <line class="fil1 str0" x1="15840" y1="1718" x2="12294" y2= "1718" />
    <line class="fil1 str1" x1="15840" y1="2071" x2="12294" y2= "2071" />
    <line class="fil1 str2" x1="15840" y1="2424" x2="12294" y2= "2424" />
    <line class="fil1 str0" x1="15840" y1="2777" x2="12294" y2= "2777" />
    <line class="fil1 str0" x1="15840" y1="3130" x2="12294" y2= "3130" />
    <line class="fil1 str0" x1="15840" y1="3483" x2="12294" y2= "3483" />
    <line class="fil1 str1" x1="15840" y1="3836" x2="12294" y2= "3836" />
    <line class="fil1 str0" x1="15840" y1="4189" x2="12294" y2= "4189" />
    <line class="fil1 str0" x1="15840" y1="4543" x2="12294" y2= "4543" />
   </g>
   <g>
    <line class="fil1 str0" x1="17639" y1="1365" x2="15840" y2= "1365" />
    <line class="fil1 str0" x1="17639" y1="1718" x2="15840" y2= "1718" />
    <line class="fil1 str1" x1="17639" y1="2071" x2="15840" y2= "2071" />
    <line class="fil1 str2" x1="17639" y1="2424" x2="15840" y2= "2424" />
    <line class="fil1 str0" x1="17639" y1="2777" x2="15840" y2= "2777" />
    <line class="fil1 str0" x1="17639" y1="3130" x2="15840" y2= "3130" />
    <line class="fil1 str0" x1="17639" y1="3483" x2="15840" y2= "3483" />
    <line class="fil1 str1" x1="17639" y1="3836" x2="15840" y2= "3836" />
    <line class="fil1 str0" x1="17639" y1="4189" x2="15840" y2= "4189" />
    <line class="fil1 str0" x1="17639" y1="4543" x2="15840" y2= "4543" />
   </g>
   <g>
    <line class="fil1 str1" x1="15840" y1="291" x2="12294" y2= "291" />
    <line class="fil1 str0" x1="15840" y1="644" x2="12294" y2= "644" />
    <line class="fil1 str0" x1="15840" y1="997" x2="12294" y2= "997" />
   </g>
   <g>
    <line class="fil1 str1" x1="17639" y1="291" x2="15840" y2= "291" />
    <line class="fil1 str0" x1="17639" y1="644" x2="15840" y2= "644" />
    <line class="fil1 str0" x1="17639" y1="997" x2="15840" y2= "997" />
   </g>
   <polygon class="fil1" points="0,17639 0,0 17639,0 17639,17639 "/>
  </g>
 </g>
</svg>
