<svg version="1.2" baseProfile="tiny-ps" xmlns="http://www.w3.org/2000/svg" width="89" height="54"><style></style><g id="OBJECTS"><g id="&lt;Group&gt;"><path id="&lt;Compound Path&gt;" fill-rule="evenodd" d="M44.39 53.63C26.51 53.63 9.84 44 .87 28.5L0 27l.87-1.5C9.84 10 26.51.37 44.39.37 62.26.37 78.94 10 87.91 25.5l.87 1.5-.87 1.5C78.94 44 62.26 53.63 44.39 53.63ZM6.97 27a44.454 44.454 0 0 0 15.14 14.59c-2.75-4.2-4.35-9.21-4.35-14.59 0-5.38 1.6-10.39 4.36-14.58-6.07 3.53-11.3 8.5-15.15 14.58Zm74.84 0a44.484 44.484 0 0 0-15.15-14.59A26.47 26.47 0 0 1 71.02 27c0 5.38-1.6 10.39-4.36 14.59 6.06-3.54 11.3-8.51 15.15-14.59ZM44.39 6.37c-11.38 0-20.63 9.25-20.63 20.63 0 11.38 9.25 20.63 20.63 20.63 11.38 0 20.63-9.25 20.63-20.63 0-11.38-9.25-20.63-20.63-20.63Z" style="fill:#c4c4c4"/></g></g></svg>