<svg version="1.2" baseProfile="tiny-ps" xmlns="http://www.w3.org/2000/svg" width="65" height="80"><style></style><g id="OBJECTS"><g id="&lt;Group&gt;"><path id="&lt;Compound Path&gt;" fill-rule="evenodd" d="M64.79 27.06v32.79c0 10.94-8.87 19.82-19.82 19.82H20.19C9.24 79.67.37 70.79.37 59.85V27.06h5.16V16.83c0-9.09 7.4-16.5 16.5-16.5h21.09c9.1 0 16.5 7.41 16.5 16.5v10.23h5.17Zm-24.24 19.2c0-4.9-4.43-8.77-9.5-7.83-3.06.57-5.59 3.01-6.25 6.04-.87 3.99 1.25 7.6 4.54 9.07V65.2a3.24 3.24 0 1 0 6.48 0V53.54c2.78-1.25 4.73-4.03 4.73-7.28Zm10.07-29.43c0-4.13-3.36-7.5-7.5-7.5H22.03c-4.13 0-7.5 3.37-7.5 7.5v10.23h36.09V16.83Z" style="fill:#fff"/></g></g></svg>